<svg width="24" height="24" viewBox="0 0 24 24" fill="none" xmlns="http://www.w3.org/2000/svg">
<path d="M19.0711 19.0711C17.6725 20.4696 15.8907 21.422 13.9509 21.8079C12.0111 22.1937 10.0004 21.9957 8.17317 21.2388C6.3459 20.4819 4.78412 19.2002 3.6853 17.5557C2.58649 15.9112 2 13.9778 2 12C2 10.0222 2.58649 8.08879 3.6853 6.4443C4.78412 4.79981 6.3459 3.51808 8.17316 2.76121C10.0004 2.00433 12.0111 1.8063 13.9509 2.19215C15.8907 2.578 17.6725 3.53041 19.0711 4.92893" stroke="#6B6B6B" stroke-width="2"/>
<path d="M9 12L8.21913 11.3753L7.71938 12L8.21913 12.6247L9 12ZM21 13C21.5523 13 22 12.5523 22 12C22 11.4477 21.5523 11 21 11V13ZM13 7L12.2191 6.3753L8.21913 11.3753L9 12L9.78087 12.6247L13.7809 7.6247L13 7ZM9 12L8.21913 12.6247L12.2191 17.6247L13 17L13.7809 16.3753L9.78087 11.3753L9 12ZM9 12V13H21V12V11H9V12Z" fill="#6B6B6B"/>
</svg>
