<svg width="24" height="24" viewBox="0 0 24 24" fill="none" xmlns="http://www.w3.org/2000/svg">
<circle cx="12" cy="8" r="4" stroke="#6B6B6B" stroke-width="2" stroke-linecap="round"/>
<path d="M11.9997 15C12.446 15 12.8906 15.0265 13.3298 15.0771C12.3112 15.3097 11.4913 16.0592 11.1598 17.0361C9.86491 17.1494 8.64309 17.5227 7.62858 18.1064C6.39651 18.8155 5.57483 19.7721 5.21354 20.7832L5.17448 20.8779C4.95664 21.3355 4.4237 21.5627 3.9362 21.3887C3.41621 21.2028 3.14497 20.6304 3.33073 20.1104L3.44108 19.8242C4.03077 18.4093 5.1663 17.2158 6.63054 16.373C8.1932 15.4737 10.0802 15 11.9997 15Z" fill="#6B6B6B"/>
<path d="M18 14L18 22" stroke="#6B6B6B" stroke-width="2.5" stroke-linecap="round"/>
<path d="M22 18L14 18" stroke="#6B6B6B" stroke-width="2.5" stroke-linecap="round"/>
</svg>
